<svg xmlns="http://www.w3.org/2000/svg" width="300" height="300">
  <g fill="none" stroke="#000000" stroke-width="1.4" stroke-linecap="round" stroke-linejoin="round">

    <!-- flame (6,4) -->
    <g transform="translate(6 4) scale(0.7)">
      <path d="M8.5 14.5A2.5 2.5 0 0 0 11 12c0-1.38-.5-2-1-3-1.072-2.143-.224-4.054 2-6 .5 2.5 2 4.9 4 6.5 2 1.6 3 3.5 3 5.5a7 7 0 1 1-14 0c0-1.153.433-2.294 1-3a2.5 2.5 0 0 0 2.5 2.5z"/>
    </g>

    <!-- rand/dollar (108,2) -->
    <g transform="translate(108 2) scale(0.7)">
      <line x1="12" y1="2" x2="12" y2="22"/>
      <path d="M17 5H9.5a3.5 3.5 0 0 0 0 7h5a3.5 3.5 0 0 1 0 7H6"/>
    </g>

    <!-- wine glass (210,6) -->
    <g transform="translate(210 6) scale(0.68)">
      <path d="M8 22h8"/>
      <path d="M7 10h10"/>
      <path d="M12 15v7"/>
      <path d="M12 15a5 5 0 0 0 5-5c0-2-.5-4-2-8H9c-1.5 4-2 6-2 8a5 5 0 0 0 5 5Z"/>
    </g>

    <!-- chef hat (4,106) -->
    <g transform="translate(4 106) scale(0.68)">
      <path d="M17 21a1 1 0 0 0 1-1v-5.35c0-.457.316-.844.727-1.041a4 4 0 0 0-2.134-7.589 5 5 0 0 0-9.186 0 4 4 0 0 0-2.134 7.588c.411.198.727.585.727 1.041V20a1 1 0 0 0 1 1Z"/>
      <path d="M6 17h12"/>
    </g>

    <!-- candlestick (104,100) -->
    <g transform="translate(104 100) scale(0.7)">
      <path d="M9 5v4"/>
      <rect x="7" y="9" width="4" height="6" rx="1"/>
      <path d="M9 15v4"/>
      <path d="M17 3v2"/>
      <rect x="15" y="5" width="4" height="8" rx="1"/>
      <path d="M17 13v4"/>
    </g>

    <!-- trending up (208,102) -->
    <g transform="translate(208 102) scale(0.7)">
      <polyline points="22 7 13.5 15.5 8.5 10.5 2 17"/>
      <polyline points="16 7 22 7 22 13"/>
    </g>

    <!-- utensils/fork-knife (6,208) -->
    <g transform="translate(6 208) scale(0.7)">
      <path d="M3 2v7c0 1.1.9 2 2 2h4a2 2 0 0 0 2-2V2"/>
      <path d="M7 2v20"/>
      <path d="M21 15V2a5 5 0 0 0-5 5v6c0 1.1.9 2 2 2h3Zm0 0v7"/>
    </g>

    <!-- receipt/ledger (108,206) -->
    <g transform="translate(108 206) scale(0.7)">
      <path d="M4 2v20l2-1 2 1 2-1 2 1 2-1 2 1 2-1 2 1V2l-2 1-2-1-2 1-2-1-2 1-2-1-2 1Z"/>
      <path d="M16 8h-6a2 2 0 1 0 0 4h4a2 2 0 1 1 0 4H8"/>
      <path d="M12 17.5v-11"/>
    </g>

    <!-- pie chart (208,204) -->
    <g transform="translate(208 204) scale(0.7)">
      <path d="M21.21 15.89A10 10 0 1 1 8 2.83"/>
      <path d="M22 12A10 10 0 0 0 12 2v10z"/>
    </g>

    <!-- scale/balance (56,56) -->
    <g transform="translate(56 56) scale(0.68)">
      <path d="M12 3v16"/>
      <path d="M3 7l9-4 9 4"/>
      <path d="M6 7l-3 6c-.83 1.67 0 3 3 3s3.83-1.33 3-3z"/>
      <path d="M18 7l-3 6c-.83 1.67 0 3 3 3s3.83-1.33 3-3z"/>
      <path d="M8 19h8"/>
    </g>

    <!-- key (162,54) -->
    <g transform="translate(162 54) scale(0.68)">
      <circle cx="7.5" cy="15.5" r="5.5"/>
      <path d="m21 2-9.6 9.6"/>
      <path d="m15.5 7.5 3 3L22 7l-3-3"/>
    </g>

    <!-- lightning/bolt (246,56) -->
    <g transform="translate(246 56) scale(0.68)">
      <path d="M13 2 3 14h9l-1 8 10-12h-9l1-8z"/>
    </g>

    <!-- pot/bowl (54,154) -->
    <g transform="translate(54 154) scale(0.68)">
      <path d="M2 12h20"/>
      <path d="M4 12v5a2 2 0 0 0 2 2h12a2 2 0 0 0 2-2v-5"/>
      <path d="M8 12V8a4 4 0 0 1 8 0v4"/>
      <path d="M10 6h4"/>
    </g>

    <!-- star (156,156) -->
    <g transform="translate(156 156) scale(0.68)">
      <polygon points="12 2 15.09 8.26 22 9.27 17 14.14 18.18 21.02 12 17.77 5.82 21.02 7 14.14 2 9.27 8.91 8.26 12 2"/>
    </g>

    <!-- bar chart (246,154) -->
    <g transform="translate(246 154) scale(0.68)">
      <line x1="12" y1="20" x2="12" y2="10"/>
      <line x1="18" y1="20" x2="18" y2="4"/>
      <line x1="6" y1="20" x2="6" y2="16"/>
    </g>

  </g>

  <!-- dot accents -->
  <circle fill="#000000" cx="53" cy="5" r="1.2" opacity="0.45"/>
  <circle fill="#000000" cx="155" cy="3" r="1.2" opacity="0.45"/>
  <circle fill="#000000" cx="255" cy="155" r="1.2" opacity="0.45"/>
  <circle fill="#000000" cx="3" cy="255" r="1.2" opacity="0.45"/>
  <circle fill="#000000" cx="155" cy="255" r="1.2" opacity="0.45"/>
  <circle fill="#000000" cx="255" cy="55" r="1.2" opacity="0.45"/>
</svg>
